<?xml version="1.0" standalone="no"?>
<!DOCTYPE svg PUBLIC "-//W3C//DTD SVG 20010904//EN"
 "http://www.w3.org/TR/2001/REC-SVG-20010904/DTD/svg10.dtd">
<svg version="1.0" xmlns="http://www.w3.org/2000/svg"
 width="150.000000pt" height="150.000000pt" viewBox="0 0 150.000000 150.000000"
 preserveAspectRatio="xMidYMid meet">
<metadata>
Created by potrace 1.14, written by Peter Selinger 2001-2017
</metadata>
<g transform="translate(0.000000,150.000000) scale(0.100000,-0.100000)"
fill="#000000" stroke="none">
<path d="M708 1495 c-2 -1 -28 -5 -58 -8 -103 -10 -274 -77 -330 -129 -11 -10
-22 -18 -26 -18 -7 0 -116 -110 -145 -147 -10 -12 -20 -30 -24 -42 -3 -12 -10
-21 -14 -21 -13 0 -73 -141 -67 -157 3 -8 2 -12 -3 -9 -12 8 -33 -97 -36 -188
-2 -75 14 -205 31 -244 4 -9 9 -26 11 -37 2 -10 9 -23 16 -27 6 -4 8 -8 4 -8
-9 0 44 -103 56 -108 4 -2 7 -10 7 -17 0 -8 37 -51 82 -98 83 -84 229 -183
255 -172 7 2 13 1 13 -4 0 -10 84 -37 155 -50 50 -10 208 -8 255 3 111 26 249
88 301 137 15 14 30 24 33 22 2 -2 13 8 25 23 11 15 21 24 21 20 0 -4 14 9 30
27 17 19 30 40 30 46 0 6 4 11 9 11 11 0 74 100 74 118 0 6 4 12 8 12 12 0 31
68 23 81 -4 7 -3 9 3 6 12 -8 28 43 43 138 13 81 6 209 -17 275 -8 25 -16 53
-19 63 -6 31 -74 163 -95 185 -10 12 -19 25 -19 29 0 13 -121 125 -173 160
-44 30 -149 83 -172 87 -5 1 -15 5 -21 8 -10 7 -41 14 -104 24 -31 6 -158 12
-162 9z m352 -228 c20 -10 25 -19 23 -50 -1 -36 -16 -60 -41 -64 -6 -2 -12 1
-12 6 0 5 -20 18 -44 29 -54 26 -65 56 -28 77 33 18 69 19 102 2z"/>
</g>
</svg>
