<svg width="1314" height="10320" xmlns="http://www.w3.org/2000/svg" xmlns:xlink="http://www.w3.org/1999/xlink"><defs><symbol viewBox="0 0 45 46" id="arrow-access">
    <path fill-rule="evenodd" clip-rule="evenodd" d="M0.299988 0.999805C0.299988 0.613205 0.613389 0.299805 0.999988 0.299805H44C44.3866 0.299805 44.7 0.613205 44.7 0.999805V44.9998C44.7 45.3864 44.3866 45.6998 44 45.6998C43.6134 45.6998 43.3 45.3864 43.3 44.9998V2.71761L1.50062 45.4891C1.23041 45.7655 0.787226 45.7706 0.510735 45.5004C0.234244 45.2302 0.22915 44.787 0.499357 44.5106L42.3371 1.6998H0.999988C0.613389 1.6998 0.299988 1.3864 0.299988 0.999805Z" />
</symbol><symbol viewBox="0 0 70 84" id="arrow-down-big">
    <path d="m70 49.14-8.242-8.096-20.774 20.69V0h-12.08v61.623L8.241 41.044 0 49.141 35 84l35-34.86Z" />
</symbol><symbol viewBox="0 0 11 12" id="arrow-down-small">
    <path d="M10.8 7.765v-2.4L8.327 7.24c-.735.54-1.35 1.02-1.965 1.53V.88H4.576v7.905c-.615-.51-1.23-.99-1.98-1.545L.12 5.365v2.4L5.46 11.8l5.34-4.035Z" />
</symbol><symbol viewBox="0 0 10 10" id="arrow-external">
    <path d="M8.968.053A.7.7 0 0 1 9.4.7v8a.7.7 0 1 1-1.4 0V2.39L1.195 9.195a.7.7 0 1 1-.99-.99L7.01 1.4H.7A.7.7 0 1 1 .7 0h8" />
</symbol><symbol viewBox="0 0 23 22" id="arrow-fat">
    <path d="M14.508.64h-4.8l3.75 4.95c1.08 1.47 2.04 2.7 3.06 3.93H.738v3.57h15.81a88.267 88.267 0 0 0-3.09 3.96L9.708 22h4.8l8.07-10.68L14.508.64Z" />
</symbol><symbol viewBox="0 0 84 70" id="arrow-left-big">
    <path d="m34.86 0 8.096 8.242-20.69 20.774H84v12.08H22.377l20.579 20.662L34.859 70 0 35 34.86 0Z" />
</symbol><symbol viewBox="0 0 11 11" id="arrow-left-small">
    <path d="M4.035 10.68h2.4L4.56 8.205c-.54-.735-1.02-1.35-1.53-1.965h7.89V4.455H3.015c.51-.615.99-1.23 1.545-1.98L6.435 0h-2.4L0 5.34l4.035 5.34Z" />
</symbol><symbol viewBox="0 0 434 428" id="arrow-progress-left">
    <path fill-rule="evenodd" clip-rule="evenodd" d="M431.067 5.695 434 2.933 431.238 0l-2.933 2.762 2.762 2.933ZM417.226 3.19c1.361-.01 2.712-.014 4.052-.01a.494.494 0 0 0 .003-.987c-1.344-.004-2.698 0-4.063.01a.493.493 0 0 0 .008.987Zm-7.386-.369a.493.493 0 0 0-.507-.48c-1.332.037-2.673.08-4.023.13a.494.494 0 0 0 .037.986c1.346-.05 2.684-.093 4.014-.13a.493.493 0 0 0 .479-.506Zm-11.946.485a.494.494 0 0 0-.521-.465c-1.318.074-2.644.154-3.977.24a.494.494 0 0 0 .064.985c1.33-.086 2.653-.166 3.969-.24a.494.494 0 0 0 .465-.52Zm-11.958.819a.493.493 0 0 0-.532-.451c-1.306.108-2.617.223-3.934.344a.494.494 0 1 0 .09.983c1.314-.12 2.623-.235 3.926-.344a.493.493 0 0 0 .45-.532Zm-11.897 1.133a.493.493 0 0 0-.544-.437 464.64 464.64 0 0 0-3.957.45.494.494 0 0 0 .115.98c1.322-.155 2.638-.305 3.949-.449a.493.493 0 0 0 .437-.544Zm-11.821 1.434a.494.494 0 0 0-.555-.423c-1.322.179-2.649.364-3.98.555a.493.493 0 1 0 .14.977c1.329-.19 2.653-.375 3.972-.554a.494.494 0 0 0 .423-.555ZM350.391 8.43a.494.494 0 0 0-.566-.41c-1.305.21-2.614.427-3.926.649a.493.493 0 1 0 .164.973c1.31-.222 2.617-.437 3.919-.647a.494.494 0 0 0 .409-.565Zm-11.82 2.038a.493.493 0 0 0-.575-.394c-1.29.24-2.583.486-3.878.739a.493.493 0 0 0 .188.968c1.293-.252 2.584-.498 3.871-.737a.493.493 0 0 0 .394-.576Zm-11.677 2.312a.494.494 0 0 0-.585-.38c-1.307.277-2.617.56-3.929.85a.493.493 0 1 0 .212.963c1.31-.289 2.617-.571 3.921-.848a.494.494 0 0 0 .381-.585Zm-11.654 2.607a.493.493 0 0 0-.594-.366c-1.29.307-2.581.62-3.874.938a.493.493 0 1 0 .236.958 478.85 478.85 0 0 1 3.866-.936.494.494 0 0 0 .366-.594Zm-11.628 2.904a.494.494 0 0 0-.603-.35c-1.273.335-2.547.678-3.822 1.026a.493.493 0 1 0 .26.952c1.273-.348 2.544-.69 3.814-1.024a.493.493 0 0 0 .351-.604Zm-11.484 3.174a.493.493 0 0 0-.611-.336c-1.281.373-2.563.752-3.847 1.137a.493.493 0 1 0 .284.945c1.281-.384 2.56-.762 3.839-1.134a.493.493 0 0 0 .335-.612Zm-11.43 3.47a.493.493 0 0 0-.62-.321c-1.262.402-2.525.81-3.789 1.225a.493.493 0 0 0 .307.937c1.262-.413 2.522-.82 3.782-1.222a.493.493 0 0 0 .32-.62Zm-11.371 3.77a.494.494 0 0 0-.628-.305c-1.246.432-2.493.87-3.74 1.316a.494.494 0 1 0 .332.93c1.244-.445 2.488-.882 3.731-1.314a.494.494 0 0 0 .305-.628Zm-11.206 4.037a.493.493 0 0 0-.635-.288c-1.246.469-2.492.944-3.738 1.425a.494.494 0 0 0 .356.92 458.26 458.26 0 0 1 3.729-1.421.493.493 0 0 0 .288-.636Zm-11.137 4.346a.494.494 0 0 0-.643-.271 441.579 441.579 0 0 0-3.677 1.515.494.494 0 0 0 .38.91c1.223-.51 2.446-1.013 3.669-1.511a.493.493 0 0 0 .271-.643Zm-11.015 4.64a.494.494 0 0 0-.65-.254 443.253 443.253 0 0 0-3.653 1.622.494.494 0 0 0 .405.9 444.49 444.49 0 0 1 3.644-1.618c.25-.11.363-.4.254-.65Zm-10.864 4.928a.493.493 0 0 0-.657-.236c-1.201.567-2.401 1.14-3.601 1.719a.493.493 0 1 0 .43.888c1.196-.578 2.394-1.15 3.592-1.714a.493.493 0 0 0 .236-.657ZM214.346 51.9a.493.493 0 0 0-.663-.218c-1.179.597-2.357 1.2-3.533 1.81a.493.493 0 1 0 .454.877c1.174-.609 2.348-1.21 3.525-1.806a.493.493 0 0 0 .217-.663Zm-10.568 5.525a.494.494 0 0 0-.669-.198c-1.171.635-2.34 1.277-3.507 1.925a.494.494 0 0 0 .479.862 416.428 416.428 0 0 1 3.499-1.92.494.494 0 0 0 .198-.669Zm-10.424 5.838a.494.494 0 0 0-.675-.179c-1.146.666-2.29 1.338-3.432 2.016a.494.494 0 0 0 .505.849 404.92 404.92 0 0 1 3.423-2.012.493.493 0 0 0 .179-.674Zm-10.255 6.145a.493.493 0 0 0-.679-.158 404.82 404.82 0 0 0-3.382 2.124.493.493 0 0 0 .53.833c1.122-.713 2.246-1.42 3.373-2.12a.494.494 0 0 0 .158-.679Zm-10.043 6.435a.493.493 0 0 0-.684-.138c-1.106.735-2.21 1.476-3.312 2.224a.494.494 0 0 0 .555.816c1.099-.746 2.2-1.485 3.303-2.218a.493.493 0 0 0 .138-.684Zm-9.877 6.763a.494.494 0 0 0-.688-.117 389.542 389.542 0 0 0-3.225 2.313.494.494 0 0 0 .58.799 371.371 371.371 0 0 1 3.216-2.307.493.493 0 0 0 .117-.688Zm-9.621 7.035a.493.493 0 0 0-.691-.096 377.147 377.147 0 0 0-3.174 2.431.494.494 0 0 0 .604.78 392.1 392.1 0 0 1 3.166-2.424.493.493 0 0 0 .095-.691Zm-9.421 7.356a.494.494 0 0 0-.694-.073 361.479 361.479 0 0 0-3.077 2.517.494.494 0 0 0 .628.76 365.51 365.51 0 0 1 3.07-2.51.494.494 0 0 0 .073-.694Zm-9.172 7.647a.494.494 0 0 0-.696-.051 369.49 369.49 0 0 0-3.018 2.637.493.493 0 1 0 .653.739c1-.883 2.004-1.759 3.01-2.629a.493.493 0 0 0 .051-.696Zm-8.914 7.937a.492.492 0 0 0-.697-.028c-.974.898-1.945 1.804-2.912 2.716a.494.494 0 0 0 .677.718c.965-.91 1.933-1.813 2.904-2.709a.492.492 0 0 0 .028-.697Zm-8.67 8.246a.494.494 0 0 0-.698-.005 356.77 356.77 0 0 0-2.824 2.815.493.493 0 1 0 .7.695c.936-.942 1.874-1.878 2.817-2.807a.494.494 0 0 0 .005-.698Zm-8.356 8.492a.494.494 0 0 0-.698.019c-.914.963-1.824 1.933-2.73 2.909a.493.493 0 1 0 .723.671c.904-.973 1.812-1.94 2.723-2.901a.493.493 0 0 0-.018-.698Zm-8.117 8.822a.495.495 0 0 0-.697.042c-.874.985-1.744 1.977-2.61 2.975a.493.493 0 1 0 .746.646c.863-.995 1.731-1.984 2.602-2.966a.495.495 0 0 0-.041-.697Zm-7.756 9.019a.493.493 0 0 0-.695.065 359.596 359.596 0 0 0-2.534 3.092.493.493 0 1 0 .767.621c.838-1.034 1.68-2.062 2.527-3.084a.493.493 0 0 0-.065-.694Zm-7.499 9.338a.494.494 0 0 0-.692.088 353.036 353.036 0 0 0-2.405 3.146.493.493 0 1 0 .787.595 351.026 351.026 0 0 1 2.399-3.137.493.493 0 0 0-.089-.692Zm-7.139 9.531a.493.493 0 0 0-.689.111 355.853 355.853 0 0 0-2.325 3.263.493.493 0 1 0 .807.568 355.82 355.82 0 0 1 2.319-3.254.492.492 0 0 0-.112-.688Zm-6.847 9.811a.494.494 0 0 0-.685.135 354.333 354.333 0 0 0-2.19 3.302.493.493 0 0 0 .825.541 350.424 350.424 0 0 1 2.184-3.293.494.494 0 0 0-.135-.685Zm-6.492 9.998a.494.494 0 0 0-.68.157 358.174 358.174 0 0 0-2.106 3.417.493.493 0 1 0 .843.513 358.137 358.137 0 0 1 2.1-3.407.493.493 0 0 0-.157-.68ZM59 196.076a.494.494 0 0 0-.674.179 368.703 368.703 0 0 0-1.968 3.441.493.493 0 1 0 .86.485c.65-1.15 1.303-2.294 1.962-3.431a.493.493 0 0 0-.18-.674Zm-5.822 10.41a.493.493 0 0 0-.668.201 379.505 379.505 0 0 0-1.88 3.552.494.494 0 0 0 .875.457c.62-1.187 1.245-2.368 1.875-3.542a.493.493 0 0 0-.202-.668Zm-5.493 10.616a.493.493 0 0 0-.661.223 376.306 376.306 0 0 0-1.74 3.558.494.494 0 0 0 .889.429 374.4 374.4 0 0 1 1.735-3.549.493.493 0 0 0-.223-.661Zm-5.14 10.761a.494.494 0 0 0-.654.244 386.173 386.173 0 0 0-1.652 3.666.493.493 0 1 0 .902.401 384.274 384.274 0 0 1 1.648-3.657.494.494 0 0 0-.244-.654Zm-4.814 10.949a.492.492 0 0 0-.646.264 387.32 387.32 0 0 0-1.513 3.654.493.493 0 1 0 .914.373 382.784 382.784 0 0 1 1.51-3.645.493.493 0 0 0-.265-.646Zm-4.458 11.048a.493.493 0 0 0-.638.283c-.48 1.247-.954 2.5-1.423 3.758a.493.493 0 1 0 .924.345c.469-1.255.942-2.505 1.42-3.749a.492.492 0 0 0-.283-.637Zm-4.148 11.243a.493.493 0 0 0-.629.302c-.434 1.237-.863 2.48-1.288 3.729a.494.494 0 1 0 .935.317 410.51 410.51 0 0 1 1.284-3.719.493.493 0 0 0-.302-.629Zm-3.785 11.266a.494.494 0 0 0-.62.321 411.51 411.51 0 0 0-1.2 3.828.492.492 0 1 0 .943.29c.394-1.278.793-2.551 1.197-3.819a.494.494 0 0 0-.32-.62Zm-3.503 11.51a.494.494 0 0 0-.61.338 437.148 437.148 0 0 0-1.07 3.78.494.494 0 1 0 .951.264c.35-1.262.706-2.519 1.067-3.771a.494.494 0 0 0-.338-.611Zm-3.131 11.419a.493.493 0 0 0-.601.354c-.333 1.286-.66 2.578-.983 3.874a.493.493 0 1 0 .957.239c.322-1.294.65-2.583.981-3.866a.493.493 0 0 0-.354-.601ZM15.835 307a.494.494 0 0 0-.592.37 461.427 461.427 0 0 0-.872 3.87.493.493 0 1 0 .963.212c.286-1.292.576-2.579.871-3.861a.493.493 0 0 0-.37-.591Zm-2.518 11.565a.493.493 0 0 0-.581.385 479.982 479.982 0 0 0-.776 3.899.494.494 0 0 0 .969.189c.253-1.302.511-2.599.774-3.892a.492.492 0 0 0-.385-.581Zm-2.25 11.773a.493.493 0 0 0-.573.399 494.688 494.688 0 0 0-.69 3.989.494.494 0 0 0 .973.164c.225-1.332.455-2.659.689-3.98a.493.493 0 0 0-.4-.572Zm-1.952 11.77a.493.493 0 0 0-.562.413c-.198 1.297-.391 2.599-.58 3.905a.494.494 0 0 0 .977.141c.188-1.304.381-2.603.578-3.897a.493.493 0 0 0-.413-.562Zm-1.667 11.784a.493.493 0 0 0-.552.426 524.59 524.59 0 0 0-.498 3.988.494.494 0 0 0 .98.118c.161-1.331.327-2.658.497-3.98a.493.493 0 0 0-.427-.552Zm-1.414 11.991a.494.494 0 0 0-.542.439c-.137 1.293-.269 2.59-.396 3.892a.493.493 0 1 0 .982.096c.127-1.299.26-2.594.395-3.884a.494.494 0 0 0-.439-.543Zm-1.12 11.741a.493.493 0 0 0-.533.451c-.11 1.318-.216 2.641-.318 3.969a.494.494 0 1 0 .984.075c.102-1.325.208-2.646.318-3.962a.493.493 0 0 0-.45-.533Zm-.884 11.975a.494.494 0 0 0-.523.462 582.522 582.522 0 0 0-.238 4.047.494.494 0 0 0 .985.055c.075-1.351.154-2.698.238-4.041a.493.493 0 0 0-.462-.523Zm-.63 11.918a.493.493 0 0 0-.514.472 600.17 600.17 0 0 0-.152 3.935.494.494 0 1 0 .986.035c.046-1.314.097-2.623.152-3.929a.493.493 0 0 0-.473-.513Zm-.391 11.867a.494.494 0 0 0-.504.483c-.03 1.332-.056 2.668-.077 4.007a.494.494 0 0 0 .987.016c.021-1.338.046-2.671.076-4.001a.494.494 0 0 0-.482-.505ZM0 423.061 2.841 428l2.857-4.93L0 423.061Z" />
</symbol><symbol viewBox="0 0 165 162" id="arrow-progress-left-mobile">
    <path fill-rule="evenodd" clip-rule="evenodd" d="M162.127 5.57 165 2.87 162.296 0l-2.872 2.701 2.703 2.87Zm-9.045-2.759a.483.483 0 0 0-.501-.464c-1.263.047-2.546.11-3.848.19a.482.482 0 1 0 .06.964 157.44 157.44 0 0 1 3.824-.19.483.483 0 0 0 .465-.5Zm-11.533.812a.483.483 0 0 0-.532-.427c-1.263.136-2.538.289-3.826.457a.483.483 0 1 0 .125.957c1.281-.167 2.55-.319 3.805-.455a.483.483 0 0 0 .428-.532Zm-11.443 1.592a.484.484 0 0 0-.56-.391c-1.258.22-2.525.456-3.799.708a.482.482 0 1 0 .187.947c1.268-.25 2.528-.485 3.779-.705a.483.483 0 0 0 .393-.559Zm-11.321 2.332a.483.483 0 0 0-.583-.355 178.62 178.62 0 0 0-3.761.955.482.482 0 1 0 .249.933 177.62 177.62 0 0 1 3.74-.95.483.483 0 0 0 .355-.583Zm-11.155 3.06a.484.484 0 0 0-.606-.316c-1.222.383-2.446.78-3.671 1.194a.482.482 0 1 0 .309.914c1.219-.41 2.436-.806 3.651-1.186a.483.483 0 0 0 .317-.605Zm-10.92 3.788a.483.483 0 0 0-.625-.275c-1.194.465-2.389.944-3.582 1.44a.482.482 0 1 0 .37.891 166.51 166.51 0 0 1 3.562-1.43.483.483 0 0 0 .275-.626Zm-10.629 4.526a.483.483 0 0 0-.643-.23c-1.164.55-2.325 1.114-3.484 1.696a.482.482 0 1 0 .434.862c1.152-.578 2.306-1.14 3.462-1.685a.482.482 0 0 0 .231-.643Zm-10.29 5.285a.483.483 0 0 0-.658-.181c-1.114.63-2.224 1.277-3.33 1.94a.482.482 0 1 0 .498.827 150.824 150.824 0 0 1 3.309-1.928.482.482 0 0 0 .182-.658Zm-9.839 6.036a.483.483 0 0 0-.67-.13c-1.069.719-2.131 1.454-3.186 2.207a.482.482 0 1 0 .56.785 143.564 143.564 0 0 1 3.165-2.192.482.482 0 0 0 .131-.67Zm-9.347 6.808a.484.484 0 0 0-.68-.075c-1 .799-1.992 1.614-2.977 2.446a.482.482 0 1 0 .624.737c.978-.826 1.964-1.636 2.957-2.43a.482.482 0 0 0 .076-.678Zm-8.734 7.542a.483.483 0 0 0-.683-.019c-.936.886-1.862 1.789-2.78 2.708a.482.482 0 1 0 .685.682c.91-.913 1.83-1.81 2.76-2.69a.482.482 0 0 0 .018-.681Zm-8.077 8.275a.483.483 0 0 0-.682.04c-.848.956-1.686 1.927-2.514 2.915a.482.482 0 1 0 .74.62c.823-.98 1.655-1.945 2.497-2.893a.482.482 0 0 0-.04-.682Zm-7.31 8.921a.483.483 0 0 0-.675.1 133.327 133.327 0 0 0-2.265 3.14.482.482 0 1 0 .792.553 132.4 132.4 0 0 1 2.249-3.118.482.482 0 0 0-.1-.675Zm-6.517 9.534a.484.484 0 0 0-.664.158 136.064 136.064 0 0 0-1.986 3.322.482.482 0 1 0 .837.483 135.15 135.15 0 0 1 1.971-3.298.482.482 0 0 0-.157-.665ZM20.28 81.394a.483.483 0 0 0-.649.213 140.65 140.65 0 0 0-1.685 3.443.482.482 0 1 0 .874.412 140.175 140.175 0 0 1 1.673-3.42.482.482 0 0 0-.213-.648Zm-4.817 10.465a.483.483 0 0 0-.63.264 148.767 148.767 0 0 0-1.415 3.594.483.483 0 1 0 .904.342c.456-1.205.925-2.395 1.406-3.571a.482.482 0 0 0-.265-.63Zm-3.986 10.826a.483.483 0 0 0-.608.311 160.223 160.223 0 0 0-1.148 3.719.483.483 0 1 0 .927.273c.368-1.246.748-2.478 1.141-3.696a.482.482 0 0 0-.312-.607ZM8.3 113.788a.483.483 0 0 0-.584.354c-.307 1.25-.602 2.513-.884 3.79a.482.482 0 1 0 .943.208c.281-1.269.575-2.525.88-3.768a.483.483 0 0 0-.355-.584Zm-2.408 11.301a.483.483 0 0 0-.56.392 185.897 185.897 0 0 0-.631 3.812.483.483 0 1 0 .955.148c.198-1.276.407-2.54.628-3.793a.483.483 0 0 0-.392-.559ZM4.205 136.52a.482.482 0 0 0-.535.424 202.104 202.104 0 0 0-.401 3.826.483.483 0 1 0 .962.091c.122-1.28.255-2.549.4-3.807a.482.482 0 0 0-.426-.534Zm-1.018 11.502a.484.484 0 0 0-.51.454 222.387 222.387 0 0 0-.192 3.837.483.483 0 1 0 .965.04c.053-1.284.117-2.557.191-3.821a.483.483 0 0 0-.454-.51ZM0 157.162 2.77 162l2.809-4.815L0 157.162Z" />
</symbol><symbol viewBox="0 0 216 213" id="arrow-progress-medium-left">
    <path fill-rule="evenodd" clip-rule="evenodd" d="m212.913 5.966 2.973-2.798-2.798-2.973-2.973 2.798 2.798 2.973Zm-9.337-2.924a.5.5 0 0 0-.511-.488c-1.328.032-2.675.077-4.039.137a.5.5 0 0 0 .044.999c1.357-.06 2.697-.105 4.018-.136a.5.5 0 0 0 .488-.512Zm-11.98.607a.5.5 0 0 0-.539-.458c-1.306.106-2.624.225-3.954.357a.5.5 0 0 0 .099.996 221.23 221.23 0 0 1 3.936-.356.5.5 0 0 0 .458-.54Zm-11.872 1.26a.5.5 0 0 0-.562-.43c-1.318.178-2.645.37-3.98.573a.5.5 0 0 0 .15.988c1.33-.202 2.652-.392 3.963-.57a.5.5 0 0 0 .429-.562Zm-11.843 1.883a.5.5 0 0 0-.584-.4c-1.293.243-2.592.498-3.896.765a.5.5 0 0 0 .2.98c1.3-.266 2.593-.52 3.88-.761a.5.5 0 0 0 .4-.584Zm-11.682 2.472a.5.5 0 0 0-.603-.37c-1.292.312-2.589.635-3.89.971a.5.5 0 0 0 .25.968 235.3 235.3 0 0 1 3.874-.966.5.5 0 0 0 .369-.603Zm-11.57 3.07a.5.5 0 0 0-.621-.339c-1.273.376-2.549.764-3.827 1.166a.5.5 0 0 0 .3.954c1.272-.4 2.542-.787 3.81-1.16a.5.5 0 0 0 .338-.622Zm-11.4 3.662a.5.5 0 0 0-.638-.305c-1.247.44-2.495.893-3.743 1.36a.5.5 0 0 0 .349.936c1.243-.463 2.485-.914 3.727-1.353a.5.5 0 0 0 .305-.638ZM122.06 20.25a.5.5 0 0 0-.653-.27c-1.228.509-2.455 1.03-3.68 1.566a.5.5 0 0 0 .4.916c1.22-.532 2.441-1.052 3.663-1.559a.5.5 0 0 0 .27-.653Zm-10.929 4.862a.5.5 0 0 0-.667-.233c-1.202.58-2.401 1.171-3.598 1.777a.5.5 0 1 0 .451.892 206.844 206.844 0 0 1 3.581-1.768.5.5 0 0 0 .233-.668Zm-10.64 5.48a.5.5 0 0 0-.68-.194c-1.162.645-2.32 1.303-3.474 1.975a.5.5 0 1 0 .503.865c1.149-.669 2.301-1.324 3.457-1.966a.5.5 0 0 0 .194-.68Zm-10.299 6.1a.5.5 0 0 0-.69-.153c-1.117.712-2.23 1.438-3.337 2.177a.5.5 0 1 0 .554.832 191.654 191.654 0 0 1 3.32-2.166.5.5 0 0 0 .153-.69Zm-9.89 6.711a.5.5 0 0 0-.698-.109c-1.073.783-2.14 1.58-3.202 2.389a.5.5 0 1 0 .607.795 186.084 186.084 0 0 1 3.184-2.376.5.5 0 0 0 .11-.699Zm-9.446 7.33a.5.5 0 0 0-.704-.064 181.384 181.384 0 0 0-3.047 2.599.5.5 0 1 0 .657.753 181.2 181.2 0 0 1 3.03-2.584.5.5 0 0 0 .064-.704Zm-8.948 7.935a.5.5 0 0 0-.706-.017c-.966.921-1.924 1.855-2.874 2.803a.5.5 0 1 0 .706.708c.945-.942 1.898-1.871 2.858-2.787a.5.5 0 0 0 .016-.707Zm-8.397 8.52a.5.5 0 0 0-.706.03c-.9.984-1.792 1.98-2.676 2.991a.5.5 0 1 0 .753.658 174.703 174.703 0 0 1 2.66-2.973.5.5 0 0 0-.03-.706Zm-7.8 9.073a.5.5 0 0 0-.702.08 175.093 175.093 0 0 0-2.457 3.155.5.5 0 1 0 .796.606c.805-1.06 1.62-2.105 2.443-3.138a.5.5 0 0 0-.08-.703ZM38.55 85.85a.5.5 0 0 0-.696.127 175.866 175.866 0 0 0-2.228 3.304.5.5 0 0 0 .836.55c.729-1.108 1.468-2.204 2.215-3.285a.5.5 0 0 0-.127-.696Zm-6.495 10.053a.5.5 0 0 0-.685.173 180.197 180.197 0 0 0-1.994 3.434.5.5 0 0 0 .87.493c.652-1.15 1.313-2.29 1.983-3.415a.5.5 0 0 0-.174-.685Zm-5.807 10.463a.5.5 0 0 0-.673.218 186.438 186.438 0 0 0-1.76 3.548.5.5 0 0 0 .901.435 182.716 182.716 0 0 1 1.75-3.529.5.5 0 0 0-.218-.672Zm-5.114 10.814a.5.5 0 0 0-.657.262c-.52 1.204-1.03 2.419-1.53 3.647a.5.5 0 1 0 .927.377 189.868 189.868 0 0 1 1.521-3.628.501.501 0 0 0-.26-.658Zm-4.424 11.108a.5.5 0 0 0-.64.301 202.78 202.78 0 0 0-1.306 3.737.5.5 0 1 0 .947.321c.424-1.251.857-2.49 1.3-3.719a.5.5 0 0 0-.3-.64Zm-3.75 11.346a.5.5 0 0 0-.62.337 211.823 211.823 0 0 0-1.094 3.824.5.5 0 0 0 .964.266c.353-1.28.716-2.548 1.088-3.806a.5.5 0 0 0-.337-.621Zm-3.098 11.534a.5.5 0 0 0-.602.371 224.517 224.517 0 0 0-.892 3.912.5.5 0 1 0 .977.213c.286-1.308.582-2.607.888-3.894a.5.5 0 0 0-.371-.602Zm-2.478 11.68a.5.5 0 0 0-.582.402 242.7 242.7 0 0 0-.697 3.99.5.5 0 1 0 .986.164c.222-1.335.453-2.659.694-3.974a.5.5 0 0 0-.401-.582Zm-1.89 11.797a.5.5 0 0 0-.563.429 258.851 258.851 0 0 0-.502 3.992.5.5 0 1 0 .993.117c.158-1.335.324-2.66.5-3.976a.5.5 0 0 0-.429-.562Zm-1.338 11.891a.5.5 0 0 0-.542.454 277.532 277.532 0 0 0-.321 3.975.5.5 0 0 0 .997.074c.098-1.329.205-2.65.32-3.961a.5.5 0 0 0-.454-.542Zm-.818 11.973a.5.5 0 0 0-.522.477c-.06 1.306-.11 2.62-.153 3.943a.5.5 0 1 0 .999.032c.043-1.318.094-2.628.153-3.93a.5.5 0 0 0-.477-.522ZM.13 207.991 3 213l2.903-4.991-5.773-.018Z" />
</symbol><symbol viewBox="0 0 216 213" id="arrow-progress-medium-right">
    <path fill-rule="evenodd" clip-rule="evenodd" d="M3.087 5.966.114 3.168 2.912.195l2.973 2.798-2.798 2.973Zm9.337-2.924a.5.5 0 0 1 .511-.488 201.9 201.9 0 0 1 4.039.137.5.5 0 0 1-.044.999c-1.357-.06-2.697-.105-4.018-.136a.5.5 0 0 1-.489-.512Zm11.98.607a.5.5 0 0 1 .539-.458c1.306.106 2.624.225 3.954.357a.5.5 0 0 1-.099.996c-1.324-.132-2.636-.25-3.936-.356a.5.5 0 0 1-.458-.54Zm11.872 1.26a.5.5 0 0 1 .562-.43c1.318.178 2.645.37 3.98.573a.5.5 0 1 1-.15.988c-1.33-.202-2.651-.392-3.963-.57a.5.5 0 0 1-.43-.562Zm11.843 1.883a.5.5 0 0 1 .584-.4c1.293.243 2.592.498 3.896.765a.5.5 0 1 1-.2.98c-1.3-.266-2.593-.52-3.88-.761a.5.5 0 0 1-.4-.584Zm11.682 2.472a.5.5 0 0 1 .603-.37c1.292.312 2.59.635 3.89.971a.5.5 0 0 1-.25.968 234.995 234.995 0 0 0-3.874-.966.5.5 0 0 1-.37-.603Zm11.57 3.07a.5.5 0 0 1 .62-.339c1.274.376 2.55.764 3.828 1.166a.5.5 0 0 1-.3.954c-1.272-.4-2.543-.787-3.81-1.16a.5.5 0 0 1-.338-.622Zm11.4 3.662a.5.5 0 0 1 .638-.305c1.247.44 2.495.893 3.743 1.36a.5.5 0 0 1-.35.936 224.047 224.047 0 0 0-3.726-1.353.5.5 0 0 1-.305-.638ZM93.94 20.25a.5.5 0 0 1 .653-.27c1.228.509 2.455 1.03 3.68 1.566a.5.5 0 1 1-.4.916 216.289 216.289 0 0 0-3.663-1.559.5.5 0 0 1-.27-.653Zm10.929 4.862a.5.5 0 0 1 .667-.233c1.202.58 2.401 1.171 3.598 1.777a.5.5 0 1 1-.451.892 206.844 206.844 0 0 0-3.581-1.768.5.5 0 0 1-.233-.668Zm10.64 5.48a.5.5 0 0 1 .68-.194c1.162.645 2.32 1.303 3.474 1.975a.5.5 0 0 1-.503.865 200.95 200.95 0 0 0-3.457-1.966.5.5 0 0 1-.194-.68Zm10.299 6.1a.5.5 0 0 1 .69-.153c1.117.712 2.23 1.438 3.337 2.177a.5.5 0 0 1-.554.832 189.443 189.443 0 0 0-3.321-2.166.5.5 0 0 1-.152-.69Zm9.89 6.711a.5.5 0 0 1 .698-.109c1.073.783 2.14 1.58 3.202 2.389a.5.5 0 1 1-.607.795 184.117 184.117 0 0 0-3.184-2.376.5.5 0 0 1-.109-.699Zm9.446 7.33a.5.5 0 0 1 .704-.064c1.022.853 2.038 1.719 3.047 2.599a.5.5 0 1 1-.657.753 186.595 186.595 0 0 0-3.03-2.584.5.5 0 0 1-.064-.704Zm8.948 7.935c.19-.2.507-.207.706-.017.966.921 1.924 1.855 2.875 2.803a.5.5 0 0 1-.707.708 177.421 177.421 0 0 0-2.858-2.787.5.5 0 0 1-.016-.707Zm8.397 8.52a.5.5 0 0 1 .706.03c.9.984 1.793 1.98 2.676 2.991a.5.5 0 1 1-.753.658 172.976 172.976 0 0 0-2.66-2.973.5.5 0 0 1 .031-.706Zm7.8 9.073a.5.5 0 0 1 .702.08c.828 1.038 1.647 2.09 2.457 3.155a.5.5 0 0 1-.796.606c-.805-1.06-1.62-2.105-2.443-3.138a.5.5 0 0 1 .08-.703Zm7.162 9.588a.5.5 0 0 1 .696.127c.751 1.088 1.494 2.19 2.228 3.304a.5.5 0 0 1-.836.55 177.619 177.619 0 0 0-2.215-3.285.5.5 0 0 1 .127-.696Zm6.495 10.053a.5.5 0 0 1 .685.173 180.73 180.73 0 0 1 1.994 3.434.5.5 0 1 1-.87.493c-.652-1.15-1.313-2.29-1.983-3.415a.5.5 0 0 1 .174-.685Zm5.807 10.463a.5.5 0 0 1 .673.218 182.916 182.916 0 0 1 1.759 3.548.5.5 0 0 1-.9.435 183.877 183.877 0 0 0-1.75-3.529.499.499 0 0 1 .218-.672Zm5.114 10.814a.5.5 0 0 1 .657.262 194.499 194.499 0 0 1 1.529 3.647.5.5 0 0 1-.926.377 192.477 192.477 0 0 0-1.521-3.628.5.5 0 0 1 .261-.658Zm4.424 11.108a.501.501 0 0 1 .64.301c.445 1.235.88 2.48 1.306 3.737a.5.5 0 1 1-.947.321c-.424-1.251-.857-2.49-1.3-3.719a.5.5 0 0 1 .301-.64Zm3.749 11.346a.5.5 0 0 1 .622.337 216.85 216.85 0 0 1 1.093 3.824.5.5 0 0 1-.964.266c-.353-1.28-.716-2.548-1.088-3.806a.499.499 0 0 1 .337-.621Zm3.099 11.534a.5.5 0 0 1 .602.371c.307 1.293.604 2.597.892 3.912a.5.5 0 1 1-.977.213 220.01 220.01 0 0 0-.888-3.894.5.5 0 0 1 .371-.602Zm2.478 11.68a.5.5 0 0 1 .582.402c.242 1.32.475 2.65.697 3.99a.499.499 0 1 1-.986.164 244.831 244.831 0 0 0-.694-3.974.5.5 0 0 1 .401-.582Zm1.891 11.797a.5.5 0 0 1 .562.429c.177 1.321.344 2.652.502 3.992a.5.5 0 0 1-.993.117c-.158-1.335-.324-2.66-.5-3.976a.5.5 0 0 1 .429-.562Zm1.337 11.891a.5.5 0 0 1 .542.454c.116 1.316.223 2.641.321 3.975a.5.5 0 0 1-.997.074c-.098-1.329-.205-2.65-.32-3.961a.5.5 0 0 1 .454-.542Zm.818 11.973a.5.5 0 0 1 .522.477c.06 1.306.111 2.62.153 3.943a.5.5 0 1 1-.999.032 310.416 310.416 0 0 0-.153-3.93.5.5 0 0 1 .477-.522Zm3.207 9.483L213 213l-2.903-4.991 5.773-.018Z" />
</symbol><symbol viewBox="0 0 434 428" id="arrow-progress-right">
    <path fill-rule="evenodd" clip-rule="evenodd" d="M2.933 5.695 0 2.933 2.762 0l2.933 2.762-2.762 2.933ZM16.774 3.19a383.24 383.24 0 0 0-4.052-.01.493.493 0 1 1-.003-.987c1.344-.004 2.698 0 4.063.01a.494.494 0 0 1-.008.987Zm7.386-.369a.493.493 0 0 1 .506-.48c1.333.037 2.674.08 4.024.13a.493.493 0 0 1-.037.986c-1.346-.05-2.684-.093-4.013-.13a.494.494 0 0 1-.48-.506Zm11.946.485a.493.493 0 0 1 .52-.465c1.32.074 2.645.154 3.978.24a.493.493 0 1 1-.064.985c-1.33-.086-2.653-.166-3.968-.24a.493.493 0 0 1-.466-.52Zm11.958.819a.493.493 0 0 1 .532-.451c1.306.108 2.617.223 3.934.344a.494.494 0 1 1-.09.983 452.99 452.99 0 0 0-3.926-.344.493.493 0 0 1-.45-.532ZM59.96 5.258a.493.493 0 0 1 .544-.437c1.314.144 2.633.294 3.957.45a.493.493 0 1 1-.115.98 466.763 466.763 0 0 0-3.95-.449.493.493 0 0 1-.436-.544Zm11.821 1.434a.493.493 0 0 1 .555-.423c1.322.179 2.649.364 3.98.555a.493.493 0 1 1-.14.977 475.317 475.317 0 0 0-3.972-.554.493.493 0 0 1-.423-.555ZM83.61 8.43a.493.493 0 0 1 .566-.41c1.305.21 2.614.427 3.926.649a.493.493 0 0 1-.164.973 481.7 481.7 0 0 0-3.919-.647.493.493 0 0 1-.409-.565Zm11.82 2.038a.493.493 0 0 1 .575-.394c1.29.24 2.583.486 3.878.739a.493.493 0 0 1-.188.968 486.001 486.001 0 0 0-3.87-.737.493.493 0 0 1-.395-.576Zm11.677 2.312a.494.494 0 0 1 .585-.38c1.307.277 2.617.56 3.929.85a.493.493 0 1 1-.212.963c-1.31-.289-2.617-.571-3.921-.848a.494.494 0 0 1-.381-.585Zm11.654 2.607a.493.493 0 0 1 .594-.366c1.29.307 2.581.62 3.874.938a.493.493 0 1 1-.236.958 478.85 478.85 0 0 0-3.866-.936.494.494 0 0 1-.366-.594Zm11.628 2.904c.07-.263.34-.42.603-.35 1.273.335 2.547.678 3.822 1.026a.493.493 0 1 1-.26.952 476.596 476.596 0 0 0-3.814-1.024.493.493 0 0 1-.351-.604Zm11.484 3.174a.493.493 0 0 1 .611-.336c1.281.373 2.563.752 3.847 1.137a.493.493 0 1 1-.284.945c-1.281-.384-2.56-.762-3.839-1.134a.493.493 0 0 1-.335-.612Zm11.43 3.47a.493.493 0 0 1 .62-.321c1.262.402 2.525.81 3.789 1.225a.493.493 0 0 1-.307.937c-1.262-.413-2.522-.82-3.782-1.222a.493.493 0 0 1-.32-.62Zm11.371 3.77a.494.494 0 0 1 .628-.305c1.246.432 2.493.87 3.74 1.316a.494.494 0 1 1-.332.93 462.692 462.692 0 0 0-3.731-1.314.494.494 0 0 1-.305-.628Zm11.206 4.037a.493.493 0 0 1 .635-.288c1.246.469 2.492.944 3.738 1.425a.494.494 0 0 1-.356.92 458.26 458.26 0 0 0-3.729-1.421.493.493 0 0 1-.288-.636Zm11.137 4.346a.494.494 0 0 1 .643-.271c1.226.499 2.452 1.004 3.677 1.515a.494.494 0 0 1-.38.91 457.812 457.812 0 0 0-3.669-1.511.493.493 0 0 1-.271-.643Zm11.015 4.64a.494.494 0 0 1 .65-.254c1.218.535 2.436 1.075 3.653 1.622a.494.494 0 0 1-.405.9 444.49 444.49 0 0 0-3.644-1.618.494.494 0 0 1-.254-.65Zm10.864 4.928a.493.493 0 0 1 .657-.236c1.201.567 2.401 1.14 3.601 1.719a.493.493 0 1 1-.43.888 428.552 428.552 0 0 0-3.592-1.714.493.493 0 0 1-.236-.657Zm10.759 5.244a.493.493 0 0 1 .663-.218c1.179.597 2.357 1.2 3.533 1.81a.493.493 0 1 1-.454.877 415.573 415.573 0 0 0-3.525-1.806.493.493 0 0 1-.217-.663Zm10.568 5.525c.13-.24.43-.328.669-.198 1.171.635 2.34 1.277 3.507 1.925a.494.494 0 0 1-.479.862 416.428 416.428 0 0 0-3.499-1.92.494.494 0 0 1-.198-.669Zm10.424 5.838a.494.494 0 0 1 .675-.179c1.146.666 2.29 1.338 3.432 2.016a.494.494 0 0 1-.505.849 404.92 404.92 0 0 0-3.423-2.012.493.493 0 0 1-.179-.674Zm10.255 6.145a.493.493 0 0 1 .679-.158 404.82 404.82 0 0 1 3.382 2.124.493.493 0 0 1-.53.833 387.037 387.037 0 0 0-3.373-2.12.494.494 0 0 1-.158-.679Zm10.043 6.435a.493.493 0 0 1 .684-.138c1.106.735 2.21 1.476 3.312 2.224a.494.494 0 0 1-.555.816c-1.099-.746-2.2-1.485-3.303-2.218a.493.493 0 0 1-.138-.684Zm9.877 6.763a.494.494 0 0 1 .688-.117c1.078.764 2.152 1.535 3.225 2.313a.494.494 0 0 1-.58.799 371.371 371.371 0 0 0-3.216-2.307.493.493 0 0 1-.117-.688Zm9.621 7.035a.493.493 0 0 1 .691-.096c1.061.804 2.119 1.614 3.174 2.431a.494.494 0 0 1-.604.78 392.1 392.1 0 0 0-3.166-2.424.493.493 0 0 1-.095-.691Zm9.421 7.356a.494.494 0 0 1 .694-.073c1.029.832 2.055 1.671 3.077 2.517a.494.494 0 0 1-.628.76 365.51 365.51 0 0 0-3.07-2.51.494.494 0 0 1-.073-.694Zm9.172 7.647a.494.494 0 0 1 .696-.051 369.49 369.49 0 0 1 3.018 2.637.493.493 0 1 1-.653.739c-1-.883-2.004-1.759-3.01-2.629a.493.493 0 0 1-.051-.696Zm8.914 7.937a.492.492 0 0 1 .697-.028c.974.898 1.945 1.804 2.912 2.716a.494.494 0 0 1-.677.718c-.965-.91-1.933-1.813-2.904-2.709a.492.492 0 0 1-.028-.697Zm8.67 8.246a.494.494 0 0 1 .698-.005c.945.932 1.887 1.87 2.824 2.815a.493.493 0 1 1-.7.695 372.561 372.561 0 0 0-2.817-2.807.494.494 0 0 1-.005-.698Zm8.356 8.492a.494.494 0 0 1 .698.019c.914.963 1.824 1.933 2.73 2.909a.493.493 0 1 1-.723.671c-.904-.973-1.812-1.94-2.723-2.901a.493.493 0 0 1 .018-.698Zm8.117 8.822a.495.495 0 0 1 .697.042c.874.985 1.744 1.977 2.609 2.975a.493.493 0 1 1-.745.646 355.744 355.744 0 0 0-2.602-2.966.495.495 0 0 1 .041-.697Zm7.756 9.019a.493.493 0 0 1 .695.065 369.235 369.235 0 0 1 2.534 3.092.494.494 0 0 1-.767.621 384.162 384.162 0 0 0-2.527-3.084.492.492 0 0 1 .065-.694Zm7.499 9.338a.493.493 0 0 1 .692.088 347.427 347.427 0 0 1 2.405 3.146.494.494 0 0 1-.787.595 364.773 364.773 0 0 0-2.399-3.137.493.493 0 0 1 .089-.692Zm7.139 9.531a.493.493 0 0 1 .689.111 380.606 380.606 0 0 1 2.325 3.263.494.494 0 0 1-.807.568 357.816 357.816 0 0 0-2.319-3.254.493.493 0 0 1 .112-.688Zm6.848 9.811a.493.493 0 0 1 .684.135 337.208 337.208 0 0 1 2.19 3.302.492.492 0 1 1-.825.541 375.722 375.722 0 0 0-2.184-3.293.493.493 0 0 1 .135-.685Zm6.491 9.998a.494.494 0 0 1 .68.157 350.233 350.233 0 0 1 2.106 3.417.494.494 0 0 1-.843.513 391.685 391.685 0 0 0-2.1-3.407.493.493 0 0 1 .157-.68ZM375 196.076a.493.493 0 0 1 .674.179 357.823 357.823 0 0 1 1.968 3.441.493.493 0 1 1-.86.485 344.062 344.062 0 0 0-1.962-3.431.493.493 0 0 1 .18-.674Zm5.822 10.41a.493.493 0 0 1 .668.201 396.794 396.794 0 0 1 1.88 3.552.493.493 0 1 1-.875.457 358.832 358.832 0 0 0-1.875-3.542.493.493 0 0 1 .202-.668Zm5.493 10.616a.493.493 0 0 1 .661.223c.585 1.18 1.165 2.366 1.74 3.558a.493.493 0 1 1-.889.429 364.937 364.937 0 0 0-1.735-3.549.493.493 0 0 1 .223-.661Zm5.14 10.761a.494.494 0 0 1 .654.244 410.308 410.308 0 0 1 1.652 3.666.494.494 0 0 1-.902.401 381.798 381.798 0 0 0-1.648-3.657.494.494 0 0 1 .244-.654Zm4.814 10.949a.493.493 0 0 1 .646.264c.509 1.212 1.013 2.43 1.512 3.654a.493.493 0 1 1-.913.373 375.117 375.117 0 0 0-1.509-3.645.493.493 0 0 1 .264-.646Zm4.458 11.048a.492.492 0 0 1 .637.283c.48 1.247.955 2.5 1.424 3.758a.493.493 0 1 1-.924.345 404.4 404.4 0 0 0-1.421-3.749.493.493 0 0 1 .284-.637Zm4.148 11.243a.493.493 0 0 1 .629.302c.434 1.237.863 2.48 1.288 3.729a.494.494 0 0 1-.935.317 395.64 395.64 0 0 0-1.285-3.719.494.494 0 0 1 .303-.629Zm3.785 11.266a.494.494 0 0 1 .62.321c.405 1.27.805 2.546 1.2 3.828a.493.493 0 0 1-.943.29 426.008 426.008 0 0 0-1.197-3.819.493.493 0 0 1 .32-.62Zm3.503 11.51a.494.494 0 0 1 .611.338c.361 1.255.717 2.515 1.069 3.78a.494.494 0 1 1-.951.264 449.779 449.779 0 0 0-1.067-3.771.494.494 0 0 1 .338-.611Zm3.131 11.419a.493.493 0 0 1 .601.354 405.8 405.8 0 0 1 .983 3.874.493.493 0 1 1-.957.239 427.702 427.702 0 0 0-.981-3.866.493.493 0 0 1 .354-.601ZM418.165 307a.494.494 0 0 1 .592.37c.295 1.285.586 2.575.872 3.87a.493.493 0 1 1-.963.212 475.593 475.593 0 0 0-.871-3.861.494.494 0 0 1 .37-.591Zm2.517 11.565a.492.492 0 0 1 .582.385c.264 1.295.522 2.595.776 3.899a.494.494 0 0 1-.969.189 453.927 453.927 0 0 0-.774-3.892.493.493 0 0 1 .385-.581Zm2.252 11.773a.493.493 0 0 1 .572.399c.235 1.325.465 2.655.69 3.989a.494.494 0 0 1-.973.164 463.638 463.638 0 0 0-.689-3.98.494.494 0 0 1 .4-.572Zm1.951 11.77a.493.493 0 0 1 .562.413c.198 1.297.391 2.599.58 3.905a.494.494 0 0 1-.977.141 498.91 498.91 0 0 0-.578-3.897.493.493 0 0 1 .413-.562Zm1.667 11.784a.493.493 0 0 1 .552.426c.171 1.325.336 2.654.498 3.988a.493.493 0 1 1-.98.118 533.8 533.8 0 0 0-.497-3.98.494.494 0 0 1 .427-.552Zm1.414 11.991a.493.493 0 0 1 .542.439c.137 1.293.269 2.59.396 3.892a.492.492 0 1 1-.982.096 515.033 515.033 0 0 0-.395-3.884.494.494 0 0 1 .439-.543Zm1.12 11.741a.494.494 0 0 1 .533.451c.11 1.318.216 2.641.318 3.969a.495.495 0 0 1-.984.075 605.699 605.699 0 0 0-.318-3.962.494.494 0 0 1 .451-.533Zm.884 11.975a.493.493 0 0 1 .523.462c.084 1.345.163 2.694.238 4.047a.493.493 0 0 1-.985.055 577.709 577.709 0 0 0-.238-4.041.493.493 0 0 1 .462-.523Zm.631 11.918c.272-.012.502.2.513.472.055 1.308.106 2.619.152 3.935a.493.493 0 1 1-.986.035 553.977 553.977 0 0 0-.152-3.929.493.493 0 0 1 .473-.513Zm.39 11.867a.494.494 0 0 1 .504.483c.03 1.332.056 2.668.077 4.007a.494.494 0 0 1-.987.016 583.36 583.36 0 0 0-.076-4.001.494.494 0 0 1 .482-.505Zm3.009 9.677L431.159 428l-2.857-4.93 5.698-.009Z" />
</symbol><symbol viewBox="0 0 165 162" id="arrow-progress-right-mobile">
    <path fill-rule="evenodd" clip-rule="evenodd" d="M2.873 5.57 0 2.87 2.704 0l2.872 2.701-2.703 2.87Zm9.045-2.759a.483.483 0 0 1 .5-.464c1.264.047 2.547.11 3.849.19a.483.483 0 1 1-.06.964 157.48 157.48 0 0 0-3.824-.19.483.483 0 0 1-.465-.5Zm11.533.812a.483.483 0 0 1 .532-.427c1.263.136 2.538.289 3.826.457a.483.483 0 1 1-.125.957c-1.281-.167-2.55-.319-3.805-.455a.483.483 0 0 1-.428-.532Zm11.443 1.592a.483.483 0 0 1 .56-.391c1.258.22 2.525.456 3.8.708a.483.483 0 1 1-.188.947c-1.268-.25-2.528-.485-3.78-.705a.483.483 0 0 1-.392-.559Zm11.32 2.332a.483.483 0 0 1 .584-.355c1.249.303 2.503.621 3.76.955a.483.483 0 1 1-.248.933 178.248 178.248 0 0 0-3.74-.95.483.483 0 0 1-.355-.583Zm11.156 3.06a.483.483 0 0 1 .606-.316c1.222.383 2.446.78 3.671 1.194a.483.483 0 1 1-.31.914 173.164 173.164 0 0 0-3.65-1.186.483.483 0 0 1-.317-.605Zm10.92 3.788a.483.483 0 0 1 .625-.275c1.194.465 2.389.944 3.582 1.44a.482.482 0 1 1-.37.891 166.51 166.51 0 0 0-3.562-1.43.483.483 0 0 1-.275-.626Zm10.629 4.526a.483.483 0 0 1 .643-.23c1.164.55 2.325 1.114 3.484 1.696a.482.482 0 1 1-.434.862 158.975 158.975 0 0 0-3.462-1.685.482.482 0 0 1-.231-.643Zm10.29 5.285a.483.483 0 0 1 .658-.181c1.114.63 2.224 1.277 3.33 1.94a.482.482 0 1 1-.498.827 150.824 150.824 0 0 0-3.309-1.928.482.482 0 0 1-.182-.658Zm9.839 6.036c.15-.221.45-.28.67-.13 1.069.719 2.131 1.454 3.187 2.207a.482.482 0 1 1-.562.785 142.141 142.141 0 0 0-3.164-2.192.482.482 0 0 1-.131-.67Zm9.347 6.808a.484.484 0 0 1 .679-.075 138.54 138.54 0 0 1 2.978 2.446.483.483 0 0 1-.624.737 139.691 139.691 0 0 0-2.957-2.43.483.483 0 0 1-.076-.678Zm8.734 7.542a.483.483 0 0 1 .683-.019c.936.886 1.862 1.789 2.779 2.708a.482.482 0 1 1-.684.682c-.911-.913-1.831-1.81-2.76-2.69a.482.482 0 0 1-.018-.681Zm8.077 8.275a.483.483 0 0 1 .682.04 135.04 135.04 0 0 1 2.514 2.915.483.483 0 1 1-.741.62c-.822-.98-1.654-1.945-2.496-2.893a.482.482 0 0 1 .041-.682Zm7.309 8.921a.483.483 0 0 1 .676.1c.766 1.03 1.521 2.077 2.265 3.14a.483.483 0 1 1-.792.553 130.988 130.988 0 0 0-2.249-3.118.483.483 0 0 1 .1-.675Zm6.518 9.534a.482.482 0 0 1 .664.158 135.445 135.445 0 0 1 1.986 3.322.483.483 0 0 1-.837.483 133.879 133.879 0 0 0-1.971-3.298.482.482 0 0 1 .158-.665Zm5.687 10.072a.483.483 0 0 1 .649.213c.574 1.133 1.135 2.28 1.685 3.443a.483.483 0 0 1-.874.412 143.154 143.154 0 0 0-1.673-3.42.482.482 0 0 1 .213-.648Zm4.817 10.465c.247-.101.529.017.63.264.484 1.184.956 2.382 1.415 3.594a.483.483 0 1 1-.904.342 145.07 145.07 0 0 0-1.406-3.571.483.483 0 0 1 .265-.63Zm3.986 10.826a.483.483 0 0 1 .608.311 158.54 158.54 0 0 1 1.148 3.719.482.482 0 1 1-.927.273 155.149 155.149 0 0 0-1.141-3.696.482.482 0 0 1 .312-.607Zm3.178 11.103a.483.483 0 0 1 .584.354c.307 1.25.602 2.513.884 3.79a.482.482 0 1 1-.943.208 170.428 170.428 0 0 0-.88-3.768.484.484 0 0 1 .355-.584Zm2.408 11.301a.482.482 0 0 1 .559.392c.223 1.259.433 2.529.632 3.812a.483.483 0 1 1-.955.148c-.198-1.276-.407-2.54-.628-3.793a.482.482 0 0 1 .392-.559Zm1.686 11.431a.482.482 0 0 1 .535.424c.145 1.264.279 2.539.401 3.826a.483.483 0 0 1-.962.091c-.122-1.28-.255-2.549-.399-3.807a.482.482 0 0 1 .425-.534Zm1.018 11.502a.485.485 0 0 1 .511.454c.074 1.269.138 2.548.191 3.837a.482.482 0 1 1-.965.04 222.046 222.046 0 0 0-.191-3.821.483.483 0 0 1 .454-.51Zm3.187 9.14L162.23 162l-2.809-4.815 5.579-.023Z" />
</symbol><symbol viewBox="0 0 84 70" id="arrow-right-big">
    <path d="m49.14 0-8.096 8.242 20.69 20.774H0v12.08h61.623L41.044 61.759 49.141 70 84 35 49.14 0Z" />
</symbol><symbol viewBox="0 0 12 11" id="arrow-right-small">
    <path d="M7.254.32h-2.4L6.73 2.795c.54.735 1.02 1.35 1.53 1.965H.37v1.785h7.905c-.51.615-.99 1.23-1.545 1.98L4.854 11h2.4l4.035-5.34L7.254.32Z" />
</symbol><symbol viewBox="0 0 10 9" id="arrow-top-small">
    <path d="M4.736.264.464 3.492v1.5l1.98-1.5A51.74 51.74 0 0 0 4.1 2.208V9h1.248V2.196c.528.42 1.044.816 1.68 1.296l1.98 1.5v-1.5L4.736.264Z" />
</symbol><symbol viewBox="0 0 1314 641" id="better">
    <path d="M196.387 301.107c8.434 2.811 15.463 10.121 21.086 21.928 5.622 11.246 8.434 24.459 8.434 39.64v197.358c0 22.491-8.434 41.608-25.303 57.352C184.299 633.128 162.089 641 133.975 641H.717V.01h133.258c16.306 0 31.487 4.78 45.544 14.338 14.057 9.559 25.302 22.21 33.737 37.953 8.434 15.182 12.651 30.644 12.651 46.388v140.849c0 14.057-2.812 26.708-8.434 37.953-5.623 11.246-12.652 19.117-21.086 23.616Zm-76.75-44.701V97.846h-13.494v158.56h13.494Zm-13.494 93.618v193.141h13.494V350.024h-13.494ZM410.784 97.845h-67.472v166.152h67.472v97.835h-67.472v181.333h67.472V641H239.572V.01h171.212v97.835ZM650.101 97.845h-59.038V641H483.107V97.845h-59.039V.01h226.033v97.835ZM889.781 97.845h-59.039V641H722.786V97.845h-59.039V.01h226.034v97.835ZM1074.64 97.845h-67.47v166.152h67.47v97.835h-67.47v181.333h67.47V641H903.427V.01h171.213v97.835ZM1087.92.01h124.83c19.11 0 36.26 4.78 51.44 14.338 15.19 9.559 26.99 21.929 35.43 37.11 8.99 15.181 13.49 30.925 13.49 47.23V252.19c0 14.057-2.81 26.146-8.43 36.267-5.06 9.558-12.09 16.587-21.09 21.085 9 2.811 16.03 9.277 21.09 19.398 5.62 10.121 8.43 22.772 8.43 37.953V641h-106.27V358.458h-13.49V641h-105.43V.01Zm118.92 264.83V97.845h-13.49V264.84h13.49Z" />
</symbol><symbol viewBox="0 0 427 312" id="blog">
    <path d="M93.96 146.188c4.04 1.347 7.407 4.848 10.1 10.504 2.693 5.387 4.04 11.716 4.04 18.988v94.536c0 10.773-4.04 19.931-12.12 27.472C88.17 305.229 77.53 309 64.064 309H.232V1.96h63.832c7.81 0 15.083 2.29 21.816 6.868 6.733 4.579 12.12 10.639 16.16 18.18 4.04 7.272 6.06 14.679 6.06 22.22v67.468c0 6.733-1.347 12.793-4.04 18.18-2.693 5.387-6.06 9.157-10.1 11.312Zm-36.764-21.412V48.824h-6.464v75.952h6.464Zm-6.464 44.844v92.516h6.464V169.62h-6.464ZM197.87 309h-83.224V1.96h51.712v259.368h31.512V309Zm6.335-259.772c0-8.08 2.02-15.756 6.06-23.028 4.04-7.272 9.696-13.063 16.968-17.372 7.541-4.579 15.89-6.868 25.048-6.868h11.716c9.157 0 17.372 2.29 24.644 6.868 7.272 4.31 12.928 10.1 16.968 17.372 4.04 7.272 6.194 14.948 6.464 23.028v214.524c0 7.811-2.155 15.352-6.464 22.624-4.04 7.272-9.696 13.197-16.968 17.776-7.272 4.309-15.487 6.464-24.644 6.464h-11.716c-9.158 0-17.507-2.155-25.048-6.464-7.272-4.579-12.928-10.504-16.968-17.776-4.04-7.272-6.06-14.813-6.06-22.624V49.228Zm56.964 214.524V48.824h-6.464v214.928h6.464ZM426.487 309h-41.612v-11.716c-2.155 4.04-5.522 7.407-10.1 10.1-4.31 2.424-9.696 3.636-16.16 3.636-12.39 0-22.22-4.713-29.492-14.14-7.003-9.427-10.504-20.335-10.504-32.724V47.612c0-8.08 2.02-15.756 6.06-23.028 4.04-7.272 9.696-13.063 16.968-17.372 7.541-4.579 16.025-6.868 25.452-6.868h10.908c9.426 0 17.776 2.29 25.048 6.868 7.541 4.31 13.332 10.1 17.372 17.372 4.04 7.272 6.06 14.948 6.06 23.028v89.284h-51.308V47.208h-6.464v216.544h6.464V143.36h51.308V309Z" />
</symbol><symbol viewBox="0 0 22 21" id="check"><path clip-rule="evenodd" d="M21.6737 5.65685 6.58789 20.7426 0 14.1569.0021 8.5l6.58579 6.5858L21.6737 0v5.65685Z" /></symbol><symbol viewBox="0 0 335 475" fill="none" id="composition-3-mobile">
    <g clip-path="url(#composition-3-mobile_a)">
        <path d="M232.752 291.049 183.538 319.6l101.575 58.822 49.357-28.55-101.718-58.823Z" fill="#1A7A3C" />
        <path d="M310.174 136.031v48.206l49.357-28.551v-48.205l-49.357 28.55Z" fill="#D3450D" />
        <path d="M130.862 0v117.644l49.214 28.551V28.55L130.862 0Z" fill="#274A9F" />
        <path d="m7.278 158.378-49.214-28.55-41.631 24.103 49.213 28.55 41.632-24.103Z" fill="#1A7A3C" />
        <path d="M138.356 325.103v56.957l41.631 24.103v-57.101l-41.631-23.959Z" fill="#274A9F" />
        <path d="m28.702 348.976 101.718-58.823v-57.1L28.702 291.875v57.101Z" fill="#D3450D" />
        <path d="M-175.618 470.893 607.076 12.77" stroke="#D3450D" stroke-width=".7" stroke-dasharray="1 9" />
        <path d="M542.96 468.499-240 12.769" stroke="#1A7A3C" stroke-width=".7" stroke-dasharray="1 9" />
        <path d="M183.538 9.577v465.041" stroke="#274A9F" stroke-width=".7" stroke-dasharray="1 9" />
    </g>
    <defs>
        
    </defs>
</symbol><clipPath id="composition-3-mobile_a">
            <path fill="#fff" d="M0 0h335v475H0z" />
        </clipPath><symbol viewBox="0 0 1296 508" id="contact">
    <path d="M176.268 431.08c0 12.76-3.52 25.08-10.56 36.96-6.6 11.88-16.06 21.56-28.38 29.04-11.88 7.04-25.3 10.56-40.26 10.56h-19.14c-14.96 0-28.38-3.52-40.26-10.56-11.88-7.48-21.12-17.16-27.72-29.04-6.6-11.88-9.9-24.2-9.9-36.96V77.98c0-13.2 3.3-25.74 9.9-37.62 6.6-11.88 15.84-21.34 27.72-28.38C49.548 4.5 62.968.76 77.928.76h19.14c14.96 0 28.38 3.74 40.26 11.22 11.88 7.04 21.12 16.5 27.72 28.38 7.04 11.88 10.78 24.42 11.22 37.62v165h-83.16V77.32h-10.56v353.76h10.56V253.54h83.16v177.54ZM186.962 80.62c0-13.2 3.3-25.74 9.9-37.62 6.6-11.88 15.84-21.34 27.72-28.38 12.32-7.48 25.96-11.22 40.92-11.22h19.14c14.96 0 28.38 3.74 40.26 11.22 11.88 7.04 21.12 16.5 27.72 28.38 6.6 11.88 10.12 24.42 10.56 37.62v350.46c0 12.76-3.52 25.08-10.56 36.96-6.6 11.88-15.84 21.56-27.72 29.04-11.88 7.04-25.3 10.56-40.26 10.56h-19.14c-14.96 0-28.6-3.52-40.92-10.56-11.88-7.48-21.12-17.16-27.72-29.04-6.6-11.88-9.9-24.2-9.9-36.96V80.62Zm93.06 350.46V79.96h-10.56v351.12h10.56ZM567.256 505h-77.88l-31.02-194.04V505h-84.48V3.4h77.88l29.7 220.44.66-220.44h85.14V505ZM754.428 79.96h-46.2V505h-84.48V79.96h-46.2V3.4h176.88v76.56ZM926.043 505h-83.16l-5.94-168.96h-10.56L821.103 505h-83.16l31.02-501.6h125.4l31.68 501.6Zm-94.38-413.82-5.28 168.3h10.56l-5.28-168.3ZM1108.26 431.08c0 12.76-3.52 25.08-10.56 36.96-6.6 11.88-16.06 21.56-28.38 29.04-11.88 7.04-25.3 10.56-40.26 10.56h-19.14c-14.96 0-28.38-3.52-40.26-10.56-11.88-7.48-21.12-17.16-27.72-29.04-6.6-11.88-9.9-24.2-9.9-36.96V77.98c0-13.2 3.3-25.74 9.9-37.62 6.6-11.88 15.84-21.34 27.72-28.38C981.54 4.5 994.96.76 1009.92.76h19.14c14.96 0 28.38 3.74 40.26 11.22 11.88 7.04 21.12 16.5 27.72 28.38 7.04 11.88 10.78 24.42 11.22 37.62v165h-83.16V77.32h-10.56v353.76h10.56V253.54h83.16v177.54ZM1295.83 79.96h-46.2V505h-84.48V79.96h-46.2V3.4h176.88v76.56Z" />
</symbol><symbol viewBox="0 0 58 58" id="icon-info"><path d="M29 58C13 58 0 45 0 29S13 0 29 0s29 13 29 29-13 29-29 29zm0-55.7C14.3 2.3 2.3 14.3 2.3 29s12 26.7 26.7 26.7 26.7-12 26.7-26.7S43.7 2.3 29 2.3zm1.2 37.8V29c0-.6-.5-1.2-1.2-1.2-.6 0-1.2.5-1.2 1.2v11.1c0 .6.5 1.2 1.2 1.2.6 0 1.2-.5 1.2-1.2zm0-22.2c0-.6-.5-1.2-1.2-1.2-.6 0-1.1.5-1.1 1.2 0 .6.5 1.2 1.2 1.2s1.1-.6 1.1-1.2z" /></symbol><symbol fill="none" viewBox="0 0 95 110" id="logo-big">
    <path d="M47.34 0 24.401 13.306l47.341 27.416 23.004-13.307L47.339 0Z" fill="#1A7A3C" />
    <path d="M71.746 40.723V63.19L94.75 49.884V27.416L71.746 40.724Z" fill="#D3450D" />
    <path d="M0 27.416v54.83l22.937 13.307v-54.83L0 27.417Z" fill="#274A9F" />
    <path d="M42.34 29.488 19.403 16.18 0 27.415 22.937 40.72 42.34 29.488Z" fill="#1A7A3C" />
    <path d="M27.938 71.881v26.546l19.403 11.234V83.048L27.937 71.881Z" fill="#274A9F" />
    <path d="m47.34 109.661 47.407-27.415V55.633L47.34 83.05v26.612Z" fill="#D3450D" />
</symbol><symbol fill="none" viewBox="0 0 654 757" id="logo-big-1">
    <path d="m326.768 756.933 327.23-189.234V384.005l-327.23 189.233v183.695Z" fill="#D3450D" />
</symbol><symbol fill="none" viewBox="0 0 654 757" id="logo-big-2">
    <path d="M495.216 281.081v155.078l158.783-91.847V189.233l-158.783 91.848Z" fill="#D3450D" />
</symbol><symbol fill="none" viewBox="0 0 654 757" id="logo-big-3">
    <path d="M326.77 0 168.447 91.847 495.218 281.08 654 189.233 326.77 0Z" fill="#1A7A3C" />
</symbol><symbol fill="none" viewBox="0 0 654 757" id="logo-big-4">
    <path d="M292.253 203.541 133.93 111.693 0 189.233l158.323 91.847 133.93-77.539Z" fill="#1A7A3C" />
</symbol><symbol fill="none" viewBox="0 0 654 757" id="logo-big-5">
    <path d="M0 189.233V567.7l158.323 91.847V281.081L0 189.233Z" fill="#274A9F" />
</symbol><symbol fill="none" viewBox="0 0 654 757" id="logo-big-6">
    <path d="M192.841 496.158v183.233l133.93 77.54V573.236l-133.93-77.078Z" fill="#274A9F" />
</symbol><symbol viewBox="0 0 127 38" id="logo-full">
    <path d="M41.305 32.85V14.8c0-.36.022-.722.089-1.083.066-.36.221-.812.488-1.353a4.848 4.848 0 0 1 1.065-1.444c.444-.406 1.132-.767 2.042-1.083.91-.293 1.953-.451 3.152-.451.621 0 1.22.045 1.798.158.577.112 1.22.36 1.93.744.689.384 1.288.88 1.798 1.49.51.608.932 1.466 1.265 2.594.333 1.105.51 2.391.51 3.858 0 1.67-.221 3.09-.665 4.264-.444 1.173-1.065 2.053-1.842 2.617-.777.564-1.576.97-2.397 1.218-.821.248-1.71.361-2.686.361-1.22 0-2.397-.158-3.507-.496v6.633h-3.04v.022Zm3.018-9.567a9.503 9.503 0 0 0 3.507.677c.688 0 1.265-.068 1.731-.203a4.007 4.007 0 0 0 1.42-.767c.467-.383.822-.947 1.066-1.76.244-.79.355-1.805.355-3.023 0-1.309-.11-2.391-.355-3.249-.244-.857-.6-1.489-1.043-1.872a4.32 4.32 0 0 0-1.354-.813 5.259 5.259 0 0 0-1.531-.203c-2.553 0-3.818.835-3.818 2.527v8.686h.022ZM58.262 7.062V3.79h3.218v3.248h-3.218v.023Zm.11 19.402V9.656h3.02v16.808h-3.02ZM64.477 18.252c0-5.91 2.441-8.866 7.302-8.866h.022c2.22 0 3.973.744 5.305 2.21 1.331 1.467 1.975 3.43 1.975 5.89 0 .811-.022 1.578-.089 2.3h-11.43c.377 2.888 1.908 4.332 4.66 4.332 2.242 0 4.129-.429 5.705-1.263v2.797c-1.71.722-3.618 1.106-5.771 1.106h-.089c-.976 0-1.864-.113-2.685-.361-.822-.248-1.62-.654-2.397-1.219-.777-.564-1.399-1.444-1.843-2.617-.444-1.218-.665-2.64-.665-4.309Zm3.04-1.218h8.501a7.553 7.553 0 0 0-.289-1.602 7.821 7.821 0 0 0-.665-1.557c-.289-.518-.733-.947-1.288-1.263-.555-.316-1.22-.474-1.997-.474-1.399 0-2.42.361-3.063 1.083-.666.745-1.066 2.008-1.199 3.813ZM81.588 26.465V11.078c2.286-1.15 4.639-1.715 7.036-1.715 2.086 0 3.729.564 4.927 1.67 1.198 1.105 1.776 2.64 1.776 4.602v10.83h-3.085V15.387c0-.993-.245-1.76-.755-2.346-.488-.564-1.487-.858-2.996-.858-1.354 0-2.642.204-3.885.61v13.672h-3.018ZM97.969 14.394c0-1.399.488-2.572 1.465-3.542.976-.97 2.463-1.466 4.483-1.466 1.487 0 2.974.36 4.417 1.105v2.662c-1.421-.676-2.775-.992-4.04-.992-2.197 0-3.285.722-3.285 2.143 0 .474.289.857.866 1.173.577.316 1.287.587 2.109.812.821.226 1.642.52 2.463.858.821.338 1.532.902 2.109 1.67.577.789.888 1.759.888 2.91 0 1.353-.511 2.526-1.51 3.497-.998.97-2.552 1.466-4.638 1.466-1.776 0-3.352-.384-4.772-1.173v-2.82c1.442.812 2.952 1.24 4.572 1.24h.066c1.066 0 1.865-.203 2.42-.586.555-.384.843-.88.843-1.489 0-.7-.288-1.24-.866-1.67-.577-.428-1.287-.744-2.108-.992a35.16 35.16 0 0 1-2.486-.79 4.876 4.876 0 0 1-2.108-1.444c-.6-.632-.888-1.489-.888-2.572ZM112.063 22.403c-.466-1.196-.688-2.64-.688-4.332 0-1.692.222-3.136.688-4.332.466-1.195 1.11-2.075 1.909-2.684.799-.587 1.62-1.016 2.463-1.264.844-.248 1.754-.36 2.753-.36.998 0 1.908.112 2.752.36.843.248 1.664.677 2.463 1.264.8.586 1.443 1.489 1.909 2.684.466 1.196.688 2.64.688 4.332 0 1.692-.222 3.136-.688 4.332-.466 1.196-1.109 2.075-1.909 2.684-.799.587-1.62 1.016-2.463 1.264-.844.248-1.754.36-2.752.36-.999 0-1.909-.112-2.753-.36-.843-.248-1.664-.677-2.463-1.264-.799-.586-1.443-1.488-1.909-2.684Zm2.752-7.423c-.244.812-.355 1.85-.355 3.091 0 1.263.111 2.279.355 3.09.244.813.6 1.422 1.088 1.806.488.383.976.654 1.465.79.488.135 1.087.202 1.797.202.711 0 1.31-.067 1.798-.203a3.899 3.899 0 0 0 1.465-.79c.488-.383.844-.992 1.088-1.804.244-.812.355-1.85.355-3.091 0-1.263-.111-2.279-.355-3.09-.244-.813-.6-1.422-1.088-1.806-.488-.383-.976-.654-1.465-.79-.488-.135-1.087-.202-1.798-.202-.71 0-1.309.067-1.797.203a3.898 3.898 0 0 0-1.465.79c-.466.383-.844.992-1.088 1.804Z" />
    <path d="M15.989 0 8.242 4.494l15.989 9.26L32 9.258 15.988 0Z" fill="#1A7A3C" />
    <path d="M24.23 13.753v7.588L32 16.847V9.26l-7.77 4.494Z" fill="#D3450D" />
    <path d="M0 9.26v18.517l7.747 4.495V13.753L0 9.26Z" fill="#274A9F" />
    <path d="M14.3 9.96 6.553 5.464 0 9.26l7.747 4.494L14.3 9.96Z" fill="#1A7A3C" />
    <path d="M9.436 24.277v8.965l6.553 3.794v-8.988l-6.553-3.771Z" fill="#274A9F" />
    <path d="m15.99 37.036 16.011-9.259V18.79l-16.01 9.26v8.987Z" fill="#D3450D" />
</symbol><symbol viewBox="0 0 97 28" id="logo-full-raw">
    <path d="M31.258 24.859V11.2c0-.273.017-.546.067-.82.05-.272.168-.614.37-1.024.201-.41.47-.785.806-1.092.336-.308.856-.58 1.545-.82.689-.222 1.478-.341 2.385-.341.47 0 .924.034 1.36.12.437.085.924.272 1.462.563.52.29.974.666 1.36 1.127.387.46.706 1.11.958 1.963.252.837.386 1.81.386 2.92 0 1.263-.168 2.338-.504 3.226-.336.888-.806 1.554-1.394 1.98a6.083 6.083 0 0 1-1.814.923c-.621.188-1.293.273-2.032.273-.924 0-1.814-.12-2.654-.376v5.02h-2.301v.017Zm2.284-7.24a7.192 7.192 0 0 0 2.654.513c.52 0 .957-.051 1.31-.154.353-.102.722-.29 1.075-.58s.621-.717.806-1.332c.185-.597.269-1.366.269-2.288 0-.99-.084-1.81-.269-2.458-.185-.649-.453-1.127-.79-1.417a3.268 3.268 0 0 0-1.024-.615 3.978 3.978 0 0 0-1.159-.154c-1.931 0-2.889.632-2.889 1.913v6.573h.017ZM44.09 5.344V2.868h2.435v2.459H44.09v.017Zm.084 14.683V7.307h2.284v12.72h-2.284ZM48.793 13.813c0-4.474 1.848-6.71 5.526-6.71h.017c1.68 0 3.006.563 4.014 1.673 1.008 1.11 1.495 2.595 1.495 4.456 0 .615-.017 1.195-.067 1.742h-8.65c.285 2.185 1.444 3.278 3.527 3.278 1.696 0 3.124-.325 4.316-.956v2.117c-1.293.546-2.737.836-4.366.836h-.068c-.739 0-1.41-.085-2.032-.273a6.085 6.085 0 0 1-1.814-.922c-.588-.427-1.058-1.093-1.394-1.98-.336-.922-.504-1.998-.504-3.262Zm2.301-.922h6.433c-.034-.427-.1-.82-.218-1.213a5.925 5.925 0 0 0-.504-1.178 2.523 2.523 0 0 0-.974-.956c-.42-.239-.924-.358-1.512-.358-1.058 0-1.83.273-2.318.82-.504.563-.806 1.519-.907 2.885ZM61.742 20.027V8.383c1.73-.87 3.51-1.297 5.325-1.297 1.578 0 2.821.427 3.728 1.263.907.837 1.344 1.998 1.344 3.483v8.195h-2.335v-8.383c0-.751-.184-1.332-.57-1.775-.37-.427-1.126-.65-2.268-.65a9.378 9.378 0 0 0-2.94.462v10.346h-2.284ZM74.139 10.893c0-1.059.37-1.946 1.108-2.68.74-.735 1.865-1.11 3.393-1.11 1.125 0 2.25.273 3.343.836v2.015c-1.075-.512-2.1-.751-3.057-.751-1.663 0-2.486.546-2.486 1.622 0 .358.218.649.655.888.436.239.974.443 1.596.614.62.17 1.242.393 1.864.649.621.256 1.159.683 1.595 1.263.437.598.672 1.332.672 2.203 0 1.024-.386 1.912-1.142 2.646-.756.734-1.931 1.11-3.51 1.11-1.344 0-2.537-.29-3.611-.888v-2.134c1.091.615 2.234.939 3.46.939h.05c.806 0 1.41-.154 1.83-.444.42-.29.639-.666.639-1.127 0-.529-.218-.939-.655-1.263-.437-.325-.974-.564-1.596-.751-.621-.171-1.26-.376-1.88-.598a3.69 3.69 0 0 1-1.596-1.093c-.454-.478-.672-1.127-.672-1.946ZM84.804 16.953c-.353-.904-.52-1.997-.52-3.277 0-1.281.167-2.374.52-3.279.353-.904.84-1.57 1.444-2.031.605-.444 1.227-.769 1.865-.956.638-.188 1.327-.274 2.082-.274.756 0 1.445.086 2.083.274.638.187 1.26.512 1.865.956.604.444 1.091 1.127 1.444 2.031.353.905.52 1.998.52 3.278 0 1.281-.167 2.374-.52 3.278-.353.905-.84 1.571-1.444 2.032-.605.444-1.227.768-1.865.956-.638.188-1.327.274-2.083.274-.755 0-1.444-.086-2.082-.274-.638-.188-1.26-.512-1.865-.956-.604-.444-1.091-1.127-1.444-2.032Zm2.083-5.617c-.185.615-.27 1.4-.27 2.34 0 .956.085 1.724.27 2.339.184.614.453 1.075.823 1.365.37.29.739.495 1.108.598.37.102.823.154 1.36.154.538 0 .992-.052 1.361-.154.37-.103.74-.29 1.109-.598.37-.29.638-.75.823-1.365.184-.615.269-1.4.269-2.34 0-.956-.084-1.724-.27-2.339-.184-.614-.453-1.075-.822-1.365-.37-.29-.74-.495-1.109-.598-.37-.102-.823-.154-1.36-.154-.538 0-.991.052-1.36.154-.37.103-.74.29-1.11.598-.352.29-.638.75-.822 1.365ZM12.087 0 6.23 3.398l12.088 7L24.192 7 12.087 0ZM18.318 10.398v5.736l5.874-3.397V7l-5.874 3.398ZM0 7v14l5.857 3.398v-14L0 7ZM10.81 7.53 4.955 4.131 0 7l5.857 3.397L10.81 7.53ZM7.133 18.354v6.778L12.087 28v-6.795l-4.954-2.851ZM12.088 28l12.105-7v-6.795l-12.105 7V28Z" />
</symbol><symbol fill="none" viewBox="0 0 39 46" id="logo-small">
    <path d="m19.486 0-9.441 5.477L29.53 16.761l9.468-5.477L19.486 0Z" fill="#1A7A3C" />
    <path d="M29.531 16.761v9.248L39 20.532v-9.248l-9.469 5.477Z" fill="#D3450D" />
    <path d="M0 11.284v22.569l9.441 5.477V16.76L0 11.284Z" fill="#274A9F" />
    <path d="M17.427 12.137 7.987 6.66 0 11.284l9.441 5.477 7.986-4.624Z" fill="#1A7A3C" />
    <path d="M11.5 29.587v10.926l7.986 4.624V34.183L11.5 29.587Z" fill="#274A9F" />
    <path d="M19.486 45.137 39 33.853V22.899L19.486 34.183v10.954Z" fill="#D3450D" />
</symbol><symbol viewBox="0 0 10 11" id="logo-tiny">
    <path d="M4.497 0 2.318 1.284 6.815 3.93 9 2.646 4.497 0Z" />
    <path d="M6.814 3.93v2.168L9 4.814V2.646L6.814 3.93ZM0 2.646v5.292l2.179 1.284V3.93L0 2.646Z" />
    <path d="M4.022 2.846 1.843 1.562 0 2.646 2.179 3.93l1.843-1.084ZM2.654 6.937v2.562l1.843 1.084V8.015L2.654 6.937Z" />
    <path d="M4.496 10.583 9 7.938V5.369L4.496 8.015v2.568Z" />
</symbol><symbol viewBox="0 0 608 311" id="pienso">
    <path d="M.232 1.96h59.792c13.736 0 25.048 4.578 33.936 13.736 9.158 8.888 13.871 19.526 14.14 31.916V151.44c0 12.928-4.578 24.105-13.736 33.532-9.157 9.157-20.604 13.736-34.34 13.736h-9.292V309H.232V1.96Zm56.964 149.884V48.824h-6.464v103.02h6.464ZM165.55 309h-50.904V1.96h50.904V309ZM253.866 48.824h-32.32v79.588h32.32v46.864h-32.32v86.86h32.32V309h-82.012V1.96h82.012v46.864ZM378.601 309h-47.672l-18.988-118.776V309h-51.712V1.96h47.672l18.18 134.936.404-134.936h52.116V309ZM444.692.344c9.158 0 17.372 2.29 24.644 6.868 7.542 4.31 13.332 10.1 17.372 17.372 4.04 7.272 6.06 14.948 6.06 23.028v70.296h-50.904v-70.7H435.4v64.236c0 4.578 1.616 9.157 4.848 13.736 3.232 4.578 9.427 11.85 18.584 21.816 5.656 6.733 10.774 12.524 15.352 17.372 5.656 7.002 9.696 13.466 12.12 19.392 2.424 5.656 3.906 11.446 4.444 17.372.539 5.656.808 14.409.808 26.26v36.36c0 7.81-2.02 15.352-6.06 22.624-4.04 7.272-9.696 13.197-16.968 17.776-7.002 4.309-14.948 6.464-23.836 6.464h-12.12c-9.157 0-17.372-2.155-24.644-6.464-7.272-4.579-12.928-10.504-16.968-17.776-4.04-7.272-6.06-14.814-6.06-22.624v-56.56h50.5v56.56h6.464v-50.096c0-4.04-1.346-7.946-4.04-11.716-2.424-4.04-7.81-10.908-16.16-20.604a176.465 176.465 0 0 0-7.272-8.484 474.284 474.284 0 0 1-8.484-10.504c-6.464-7.811-11.042-14.41-13.736-19.796-2.693-5.387-4.444-10.774-5.252-16.16-.538-5.387-.808-13.602-.808-24.644V47.612c0-8.08 2.02-15.756 6.06-23.028 4.04-7.272 9.562-13.063 16.564-17.372 7.272-4.579 15.218-6.868 23.836-6.868h12.12ZM499.314 49.228c0-8.08 2.02-15.756 6.06-23.028 4.04-7.272 9.696-13.063 16.968-17.372 7.542-4.579 15.891-6.868 25.048-6.868h11.716c9.158 0 17.372 2.29 24.644 6.868 7.272 4.31 12.928 10.1 16.968 17.372 4.04 7.272 6.195 14.948 6.464 23.028v214.524c0 7.81-2.154 15.352-6.464 22.624-4.04 7.272-9.696 13.197-16.968 17.776-7.272 4.309-15.486 6.464-24.644 6.464H547.39c-9.157 0-17.506-2.155-25.048-6.464-7.272-4.579-12.928-10.504-16.968-17.776-4.04-7.272-6.06-14.814-6.06-22.624V49.228Zm56.964 214.524V48.824h-6.464v214.928h6.464Z" />
</symbol><symbol viewBox="0 0 340 192" id="shape-01"><path d="M339.803.87158H.76953V191.48H339.803V.87158Z" /></symbol><symbol viewBox="0 0 255 128" id="shape-02"><path d="M.93555 127.649C.93555 57.6923 57.6425.98535 127.599.98535c69.956 0 126.663 56.70695 126.663 126.66365H.93555Z" /></symbol><symbol viewBox="0 0 240 240" id="shape-03"><path d="M119.808 0C53.6348 0 0 53.6349 0 119.808v119.808h239.616V119.808C239.616 53.6349 185.981 0 119.808 0Z" /></symbol><symbol viewBox="0 0 102 102" id="shape-04"><path d="M51 101.764c28.1665 0 51-22.7803 51-50.8818C102 22.7807 79.1665 0 51 0S0 22.7807 0 50.8822c0 28.1015 22.8335 50.8818 51 50.8818Z" /></symbol><symbol viewBox="0 0 216 216" id="shape-05"><path d="M108 215C48.8 215 .6 167 .6 107.8.6 48.7 48.8.6 108 .6s107.4 48.1 107.4 107.2C215.4 167 167.2 215 108 215zm0-213.6C49.2 1.4 1.4 49.1 1.4 107.8S49.2 214.3 108 214.3s106.6-47.8 106.6-106.5S166.8 1.4 108 1.4zm0 206.3c-55.2 0-100-44.8-100-99.9C8 52.8 52.8 8 108 8s100 44.8 100 99.9c0 55-44.8 99.8-100 99.8zm0-199c-54.8 0-99.3 44.5-99.3 99.2S53.2 207 108 207s99.3-44.5 99.3-99.2S162.8 8.7 108 8.7zm0 191.7c-51.1 0-92.7-41.5-92.7-92.6 0-51 41.6-92.6 92.7-92.6s92.7 41.5 92.7 92.6c0 51.1-41.6 92.6-92.7 92.6zM108 16c-50.7 0-92 41.2-92 91.8 0 50.6 41.3 91.8 92 91.8s92-41.2 92-91.8c0-50.6-41.3-91.8-92-91.8zm0 177.1c-47.1 0-85.4-38.2-85.4-85.3 0-47 38.3-85.3 85.4-85.3s85.4 38.2 85.4 85.3c0 47.1-38.3 85.3-85.4 85.3zm0-169.8c-46.7 0-84.7 37.9-84.7 84.5s38 84.5 84.7 84.5 84.7-37.9 84.7-84.5-38-84.5-84.7-84.5zm0 162.5c-43 0-78.1-35-78.1-77.9 0-43 35-77.9 78.1-77.9 43 0 78.1 35 78.1 77.9 0 42.9-35.1 77.9-78.1 77.9zm0-155.2c-42.6 0-77.3 34.6-77.3 77.2S65.4 185 108 185c42.6 0 77.3-34.6 77.3-77.2 0-42.5-34.7-77.2-77.3-77.2zm0 147.8c-39 0-70.7-31.7-70.7-70.6S69 37.2 108 37.2s70.7 31.7 70.7 70.6-31.7 70.6-70.7 70.6zM108 38c-38.6 0-70 31.3-70 69.9 0 38.5 31.4 69.9 70 69.9s70-31.3 70-69.9c0-38.6-31.4-69.9-70-69.9zm0 133.1c-34.9 0-63.4-28.4-63.4-63.3S73 44.5 108 44.5c34.9 0 63.4 28.4 63.4 63.3S143 171.1 108 171.1zm0-125.8c-34.5 0-62.7 28.1-62.7 62.6s28.1 62.6 62.7 62.6c34.5 0 62.7-28.1 62.7-62.6S142.5 45.3 108 45.3zm0 118.5c-30.9 0-56.1-25.1-56.1-56s25.1-56 56.1-56 56.1 25.1 56.1 56-25.2 56-56.1 56zm0-111.2c-30.5 0-55.3 24.8-55.3 55.2 0 30.5 24.8 55.2 55.3 55.2 30.5 0 55.3-24.8 55.3-55.2 0-30.4-24.8-55.2-55.3-55.2zm0 103.9c-26.9 0-48.7-21.8-48.7-48.7 0-26.8 21.9-48.7 48.7-48.7 26.9 0 48.7 21.8 48.7 48.7 0 26.9-21.8 48.7-48.7 48.7zm0-96.6c-26.5 0-48 21.5-48 47.9s21.5 47.9 48 47.9 48-21.5 48-47.9-21.5-47.9-48-47.9zm0 89.3c-22.8 0-41.4-18.5-41.4-41.3 0-22.8 18.6-41.3 41.4-41.3 22.8 0 41.4 18.5 41.4 41.3 0 22.7-18.6 41.3-41.4 41.3zm0-82c-22.4 0-40.7 18.2-40.7 40.6 0 22.4 18.2 40.6 40.7 40.6 22.4 0 40.7-18.2 40.7-40.6 0-22.4-18.3-40.6-40.7-40.6zm0 74.7c-18.8 0-34.1-15.3-34.1-34s15.3-34 34.1-34 34.1 15.3 34.1 34-15.3 34-34.1 34zm0-67.4c-18.4 0-33.3 14.9-33.3 33.3s15 33.3 33.3 33.3c18.4 0 33.3-14.9 33.3-33.3 0-18.3-14.9-33.3-33.3-33.3z" /></symbol></defs></svg>