<svg xmlns="http://www.w3.org/2000/svg" >
<symbol id="arrow" viewBox="0 0 30 12">
    <g stroke="none" stroke-width="1" fill="#000" fill-rule="evenodd">
        <path d="M21.009194,-1.77635684e-14 C21.032714,3.40098 24.116294,5.12442 26.807654,5.64546 L-5.99999899e-06,5.64546 L-5.99999899e-06,6.34326 L26.807654,6.35604 C24.116294,6.87714 21.032714,8.60052 21.009194,12.0015 L22.672874,12.0015 C22.733714,8.71068 26.898374,7.46838 29.281634,7.18206 L29.281634,6.35604 L29.281634,5.64546 L29.281634,4.81944 C26.898374,4.53312 22.733714,3.29076 22.672874,-1.77635684e-14 L21.009194,-1.77635684e-14 Z" fill="#000"></path>
        <rect id="Rectangle" fill="#00" x="0" y="5" width="28" height="2"></rect>
    </g>
</symbol>
<symbol id="star" viewBox="0 0 48 48"><path fill-rule="evenodd" d="M20.078 14.026L24.157 0l5.02 14.026 12.548-7.013-6.588 13.247L48 24.312l-12.863 4.675 6.588 12.78-13.803-7.481L24.157 48l-4.079-13.714-13.176 7.48 5.96-12.779L0 24l12.863-3.74-5.02-13.247 12.235 7.013z"></path></symbol>

<symbol id="smile" viewBox="0 0 165 165" class="smiley">
<g fill="none" fill-rule="evenodd" transform="translate(-.774 .226)">
	<g fill="#123244">
	<path class="smiley" d="M115.646 82.94c0 2.824 2.262 5.117 5.05 5.117 2.79 0 5.052-2.293 5.052-5.118 0-2.828-2.262-5.118-5.052-5.118-2.788 0-5.05 2.29-5.05 5.118M50.16 89.53c0 2.826-2.26 5.119-5.051 5.119-2.791 0-5.051-2.293-5.051-5.118 0-2.828 2.26-5.118 5.05-5.118 2.792 0 5.052 2.29 5.052 5.118M84.336 134.856c-26.995 0-39.336-20.064-39.85-20.918a2.347 2.347 0 0 1 .842-3.236 2.414 2.414 0 0 1 3.28.83c.456.756 11.533 18.6 35.599 18.6 24.192 0 35.27-17.844 35.73-18.604a2.414 2.414 0 0 1 3.28-.822 2.344 2.344 0 0 1 .837 3.232c-.511.854-12.852 20.918-39.718 20.918"></path>
	</g>
	<circle cx="82.824" cy="82.317" r="80.5" stroke="#123244" stroke-width="3"></circle>
	</g>
	</symbol>

<symbol id="copy"
	 viewBox="0 0 488.3 488.3" style="enable-background:new 0 0 488.3 488.3;">
<g>
	<g>
		<path d="M314.25,85.4h-227c-21.3,0-38.6,17.3-38.6,38.6v325.7c0,21.3,17.3,38.6,38.6,38.6h227c21.3,0,38.6-17.3,38.6-38.6V124
			C352.75,102.7,335.45,85.4,314.25,85.4z M325.75,449.6c0,6.4-5.2,11.6-11.6,11.6h-227c-6.4,0-11.6-5.2-11.6-11.6V124
			c0-6.4,5.2-11.6,11.6-11.6h227c6.4,0,11.6,5.2,11.6,11.6V449.6z"/>
		<path d="M401.05,0h-227c-21.3,0-38.6,17.3-38.6,38.6c0,7.5,6,13.5,13.5,13.5s13.5-6,13.5-13.5c0-6.4,5.2-11.6,11.6-11.6h227
			c6.4,0,11.6,5.2,11.6,11.6v325.7c0,6.4-5.2,11.6-11.6,11.6c-7.5,0-13.5,6-13.5,13.5s6,13.5,13.5,13.5c21.3,0,38.6-17.3,38.6-38.6
			V38.6C439.65,17.3,422.35,0,401.05,0z"/>
	</g>
</g>
</symbol>

</svg>


